<svg width="306" height="306" viewBox="0 0 306 306" fill="none" xmlns="http://www.w3.org/2000/svg">
<path opacity="0.5" d="M153 293.25C230.458 293.25 293.25 230.458 293.25 153C293.25 75.5421 230.458 12.75 153 12.75C75.5421 12.75 12.75 75.5421 12.75 153C12.75 175.435 18.018 196.641 27.3846 215.446C29.8736 220.444 30.7021 226.156 29.2591 231.549L20.9057 262.769C17.2794 276.322 29.6784 288.72 43.2312 285.094L74.4513 276.741C79.8447 275.298 85.5567 276.127 90.5541 278.616C109.359 287.982 130.565 293.25 153 293.25Z" fill="#F6A317"/>
<path d="M138.975 153.005C138.975 160.751 145.254 167.03 153 167.03C160.746 167.03 167.025 160.751 167.025 153.005C167.025 145.259 160.746 138.98 153 138.98C145.254 138.98 138.975 145.259 138.975 153.005Z" fill="#F6A317"/>
<path d="M82.875 153.005C82.875 160.751 89.1542 167.03 96.9 167.03C104.646 167.03 110.925 160.751 110.925 153.005C110.925 145.259 104.646 138.98 96.9 138.98C89.1542 138.98 82.875 145.259 82.875 153.005Z" fill="#F6A317"/>
<path d="M195.075 153.005C195.075 160.751 201.354 167.03 209.1 167.03C216.846 167.03 223.125 160.751 223.125 153.005C223.125 145.259 216.846 138.98 209.1 138.98C201.354 138.98 195.075 145.259 195.075 153.005Z" fill="#F6A317"/>
</svg>
