<svg
  viewBox="0 0 294 57"
  fill="none"
  xmlns="http://www.w3.org/2000/svg">
  <path
    d="M22.7341 50.7249C19.4949 50.7249 16.4757 50.2106 13.6764 49.1819C10.9172 48.1137 8.51778 46.6103 6.47831 44.6717C4.43884 42.7331 2.83926 40.4583 1.67956 37.8471C0.559854 35.2359 0 32.3676 0 29.2421C0 26.1166 0.559854 23.2483 1.67956 20.6372C2.83926 18.026 4.43884 15.7511 6.47831 13.8125C8.55777 11.8739 10.9771 10.3903 13.7364 9.36167C16.4957 8.29347 19.5149 7.75937 22.7941 7.75937C26.4331 7.75937 29.7122 8.39238 32.6315 9.6584C35.5907 10.8849 38.0701 12.7048 40.0695 15.1181L33.8312 20.8152C32.3916 19.1931 30.792 17.9864 29.0324 17.1952C27.2729 16.3643 25.3534 15.9489 23.2739 15.9489C21.3144 15.9489 19.5149 16.2654 17.8753 16.8984C16.2358 17.5315 14.8161 18.4414 13.6164 19.6283C12.4168 20.8152 11.477 22.2197 10.7972 23.8418C10.1574 25.4639 9.83743 27.264 9.83743 29.2421C9.83743 31.2203 10.1574 33.0204 10.7972 34.6425C11.477 36.2646 12.4168 37.6691 13.6164 38.856C14.8161 40.0429 16.2358 40.9528 17.8753 41.5858C19.5149 42.2188 21.3144 42.5353 23.2739 42.5353C25.3534 42.5353 27.2729 42.1397 29.0324 41.3484C30.792 40.5176 32.3916 39.2714 33.8312 37.6097L40.0695 43.3068C38.0701 45.7202 35.5907 47.5598 32.6315 48.8259C29.7122 50.0919 26.4131 50.7249 22.7341 50.7249Z"
    fill="white" />
  <path
    d="M46.6317 50.0128V8.4715H64.807C68.566 8.4715 71.8052 9.08473 74.5245 10.3112C77.2438 11.4981 79.3432 13.2191 80.8228 15.4742C82.3024 17.7293 83.0422 20.4196 83.0422 23.545C83.0422 26.631 82.3024 29.3015 80.8228 31.5566C79.3432 33.7721 77.2438 35.4733 74.5245 36.6602C71.8052 37.8471 68.566 38.4405 64.807 38.4405H52.0303L56.3492 34.2271V50.0128H46.6317ZM73.3248 50.0128L62.8275 34.9392H73.2048L83.822 50.0128H73.3248ZM56.3492 35.2953L52.0303 30.7851H64.2671C67.2664 30.7851 69.5058 30.1521 70.9854 28.8861C72.465 27.5805 73.2048 25.8001 73.2048 23.545C73.2048 21.2504 72.465 19.47 70.9854 18.204C69.5058 16.938 67.2664 16.305 64.2671 16.305H52.0303L56.3492 11.7355V35.2953Z"
    fill="white" />
  <path
    d="M90.7413 50.0128V8.4715H98.7792L116.655 37.7878H112.396L129.971 8.4715H137.949L138.069 50.0128H128.951L128.891 22.2988H130.571L116.535 45.6212H112.156L97.8195 22.2988H99.859V50.0128H90.7413Z"
    fill="white" />
  <path d="M153.035 56.9986V0.998623H156.415V56.9986H153.035Z" fill="#FFA500" />
  <path
    d="M189.763 49.7602C186.645 49.7602 183.747 49.2393 181.07 48.1976C178.432 47.1157 176.133 45.6132 174.175 43.6899C172.217 41.7666 170.698 39.5228 169.619 36.9584C168.54 34.354 168 31.5091 168 28.4238C168 25.3386 168.54 22.5138 169.619 19.9494C170.698 17.345 172.217 15.0811 174.175 13.1578C176.173 11.2345 178.492 9.75201 181.129 8.71024C183.767 7.62839 186.645 7.08747 189.763 7.08747C192.72 7.08747 195.478 7.56829 198.036 8.52993C200.634 9.49157 202.852 10.9541 204.691 12.9174L202.772 14.9008C200.974 13.1378 198.975 11.8756 196.777 11.1143C194.619 10.313 192.321 9.91228 189.882 9.91228C187.205 9.91228 184.707 10.3731 182.388 11.2946C180.11 12.2162 178.112 13.5184 176.393 15.2013C174.715 16.8842 173.396 18.8475 172.436 21.0913C171.517 23.3352 171.058 25.7793 171.058 28.4238C171.058 31.0684 171.517 33.5125 172.436 35.7564C173.396 38.0002 174.715 39.9635 176.393 41.6464C178.112 43.3293 180.11 44.6315 182.388 45.5531C184.707 46.4746 187.205 46.9354 189.882 46.9354C192.321 46.9354 194.619 46.5548 196.777 45.7935C198.975 44.9921 200.974 43.6899 202.772 41.8868L204.691 43.8702C202.852 45.8335 200.634 47.3161 198.036 48.3178C195.478 49.2794 192.72 49.7602 189.763 49.7602Z"
    fill="white" />
  <path
    d="M225.663 17.8458C228.221 17.8458 230.439 18.3467 232.318 19.3484C234.236 20.31 235.715 21.7925 236.754 23.796C237.833 25.7593 238.373 28.2035 238.373 31.1285V49.4597H235.375V31.3689C235.375 27.8429 234.476 25.1583 232.677 23.3151C230.919 21.472 228.441 20.5504 225.243 20.5504C222.805 20.5504 220.687 21.0513 218.889 22.053C217.09 23.0547 215.711 24.4571 214.752 26.2602C213.833 28.0632 213.373 30.2269 213.373 32.7512V49.4597H210.375V4.86368H213.373V26.8011L212.833 25.8394C213.793 23.3552 215.371 21.4119 217.57 20.0095C219.768 18.567 222.466 17.8458 225.663 17.8458Z"
    fill="white" />
  <path
    d="M266.841 49.4597V42.3075L266.721 41.2257V29.4456C266.721 26.5206 265.922 24.2968 264.323 22.7742C262.765 21.2516 260.466 20.4903 257.429 20.4903C255.271 20.4903 253.252 20.871 251.374 21.6323C249.535 22.3535 247.956 23.2951 246.637 24.4571L245.139 22.2934C246.697 20.891 248.576 19.8092 250.774 19.0479C252.972 18.2465 255.271 17.8458 257.669 17.8458C261.545 17.8458 264.523 18.8275 266.601 20.7908C268.68 22.7542 269.719 25.6792 269.719 29.5658V49.4597H266.841ZM255.57 49.7001C253.252 49.7001 251.234 49.3395 249.515 48.6183C247.836 47.857 246.537 46.7952 245.618 45.4329C244.739 44.0705 244.299 42.5079 244.299 40.7449C244.299 39.1421 244.659 37.6997 245.378 36.4175C246.138 35.0952 247.377 34.0334 249.095 33.232C250.814 32.3906 253.112 31.9699 255.99 31.9699H267.501V34.3139H256.05C252.812 34.3139 250.534 34.9149 249.215 36.117C247.936 37.319 247.297 38.8216 247.297 40.6247C247.297 42.6281 248.056 44.2308 249.575 45.4329C251.094 46.6349 253.232 47.2359 255.99 47.2359C258.628 47.2359 260.846 46.6349 262.645 45.4329C264.483 44.2308 265.842 42.4878 266.721 40.2039L267.561 42.2474C266.721 44.5313 265.282 46.3544 263.244 47.7167C261.246 49.039 258.688 49.7001 255.57 49.7001Z"
    fill="white" />
  <path
    d="M287.585 49.7001C284.827 49.7001 282.709 48.9388 281.23 47.4162C279.791 45.8936 279.072 43.8101 279.072 41.1656V11.2345H282.07V40.8651C282.07 42.8685 282.569 44.4111 283.568 45.493C284.568 46.5748 286.006 47.1157 287.885 47.1157C289.843 47.1157 291.462 46.5347 292.741 45.3727L294 47.4763C293.201 48.2376 292.221 48.7986 291.062 49.1592C289.943 49.5198 288.784 49.7001 287.585 49.7001ZM273.317 20.6706V18.0862H292.022V20.6706H273.317Z"
    fill="white" />
</svg>